<?xml version="1.0" encoding="UTF-8"?>
<!DOCTYPE svg PUBLIC "-//W3C//DTD SVG 1.1//EN" "http://www.w3.org/Graphics/SVG/1.1/DTD/svg11.dtd">
<!-- Creator: CorelDRAW X5 -->
<svg xmlns="http://www.w3.org/2000/svg" xml:space="preserve" width="271.732mm" height="190.253mm" style="shape-rendering:geometricPrecision; text-rendering:geometricPrecision; image-rendering:optimizeQuality; fill-rule:evenodd; clip-rule:evenodd"
viewBox="0 0 27173 19025"
 xmlns:xlink="http://www.w3.org/1999/xlink">
 <defs>
  <style type="text/css">
   <![CDATA[
    .str0 {stroke:#323234;stroke-width:50}
    .fil1 {fill:none}
    .fil5 {fill:none;fill-rule:nonzero}
    .fil2 {fill:#FEFEFE}
    .fil0 {fill:#FEFEFE;fill-rule:nonzero}
    .fil4 {fill:black;fill-rule:nonzero}
    .fil3 {fill:#009B43;fill-rule:nonzero}
   ]]>
  </style>
 </defs>
 <g id="Camada_x0020_1">
  <metadata id="CorelCorpID_0Corel-Layer"/>
  <path class="fil0 str0" d="M14 12c4523,0 9048,0 13571,0 4523,0 9050,0 13576,0 0,3168 0,6337 0,9503 0,3166 0,6333 0,9499 -4526,0 -9053,0 -13576,0 -4523,0 -9048,0 -13571,0 0,-3166 0,-6333 0,-9499 0,-3166 0,-6335 0,-9503z"/>
  <rect class="fil1" x="7" y="5" width="27147" height="19003"/>
  <rect class="fil2" x="3616" y="2586" width="19941" height="13528"/>
  <path class="fil3" d="M5445 11592c631,-201 2820,-678 8125,-31 5997,730 7933,28 8175,-74l0 258c-514,180 -2655,733 -8204,56 -5576,-679 -7640,-120 -8097,45l0 -254 1 0z"/>
  <path class="fil3" d="M11105 6026c65,-145 102,-306 102,-476 0,-638 -517,-1155 -1155,-1155 -638,0 -1155,517 -1155,1155 0,170 37,331 102,476 -575,65 -1023,554 -1023,1148 0,638 517,1155 1155,1155l0 0c248,0 479,-79 667,-212l515 0c188,133 419,212 667,212l0 0c638,0 1155,-517 1155,-1155 0,-596 -452,-1086 -1031,-1148l1 0z"/>
  <path class="fil4" d="M21683 9824l0 -423c0,-282 -43,-480 -128,-592 -144,-188 -384,-281 -719,-281 -300,0 -578,84 -836,252l203 325c155,-129 306,-194 451,-194 148,0 256,60 324,182l-295 62c-267,55 -462,132 -586,230 -62,49 -113,102 -153,159 2,-32 4,-65 4,-99 0,-273 -74,-494 -221,-663l0 0c-147,-169 -339,-254 -575,-254 -125,0 -231,21 -319,64 -89,43 -181,118 -275,225l0 -244 -709 0 0 2309 709 0 0 -728c92,107 178,182 256,225 78,43 169,64 274,64 243,0 448,-96 613,-288 56,-66 104,-137 141,-213 12,129 65,241 162,338 110,109 238,164 384,164 207,0 397,-82 569,-244 0,73 9,140 25,201l767 0c-44,-139 -65,-330 -65,-573l0 0 0 -1zm-2559 16c-58,151 -147,226 -267,226 -90,0 -163,-53 -217,-159 -55,-105 -82,-247 -82,-424 0,-177 28,-316 86,-419 57,-102 135,-153 236,-153 94,0 169,50 225,149 55,99 82,236 82,408 0,141 -20,265 -62,371l0 0 0 1zm1815 3c-22,49 -56,88 -104,117 -48,29 -95,44 -144,44 -49,0 -92,-21 -131,-64 -39,-43 -58,-92 -58,-148 0,-136 108,-234 325,-292 73,-19 125,-33 154,-40l0 165c0,86 -14,159 -40,219l0 0 -1 0zm-3235 -519c0,-246 -28,-418 -84,-515 -107,-188 -295,-281 -564,-281 -266,0 -474,103 -625,311 -92,-207 -267,-311 -523,-311 -274,0 -484,103 -633,311l0 -267 -723 0 0 1825 723 0 0 -1036c0,-102 8,-174 22,-216 37,-102 117,-154 239,-154 93,0 159,37 195,110 19,39 29,129 29,268l0 1029 723 0 0 -1037c0,-92 9,-162 26,-208 40,-107 119,-161 238,-161 93,0 161,37 201,110 22,42 33,118 33,230l0 1066 723 0 0 -1074 -2 0zm-3301 500l0 -423c0,-282 -43,-480 -128,-592 -144,-188 -384,-281 -719,-281 -300,0 -578,84 -836,252l203 325c155,-129 306,-194 451,-194 148,0 256,60 324,182l-295 62c-267,55 -462,132 -586,230 -62,49 -113,102 -153,159 2,-32 4,-65 4,-99 0,-273 -74,-494 -221,-663l0 0c-147,-169 -339,-254 -575,-254 -124,0 -231,21 -319,64 -89,43 -181,118 -275,225l0 -244 -709 0 0 2309 709 0 0 -728c92,107 177,182 256,225 78,43 169,64 274,64 243,0 448,-96 613,-288 56,-66 104,-137 141,-213 12,129 65,241 162,338 110,109 238,164 384,164 207,0 397,-82 569,-244 0,73 9,140 25,201l767 0c-44,-139 -66,-330 -66,-573l0 0 1 -1zm-2559 16c-58,151 -147,226 -267,226 -91,0 -163,-53 -217,-159 -55,-105 -82,-247 -82,-424 0,-177 28,-316 86,-419 57,-102 135,-153 236,-153 95,0 169,50 225,149 55,99 82,236 82,408 0,141 -20,265 -62,371l0 0 0 1zm1815 3c-22,49 -56,88 -104,117 -48,29 -95,44 -144,44 -49,0 -92,-21 -131,-64 -39,-43 -58,-92 -58,-148 0,-136 108,-234 325,-292 73,-19 125,-33 154,-40l0 165c0,86 -14,159 -40,219l0 0 -1 0zm-3239 -1270l-723 0 0 1825 723 0 0 -1810 0 -16 0 0zm-723 -135l723 0 0 -446 -723 0 0 446zm-146 899c0,-237 -23,-402 -70,-496 -100,-207 -292,-311 -575,-311 -246,0 -452,103 -615,311l0 -267 -723 0 0 1825 723 0 0 -1026c0,-253 97,-380 292,-380 163,0 244,108 244,325l0 1081 723 0 0 -1063 1 1zm-2125 -763l-730 0 0 1030c0,248 -96,373 -290,373 -160,0 -239,-107 -239,-321l0 -1081 -723 0 0 1063c0,241 24,410 73,507 100,200 290,300 569,300 243,0 447,-103 609,-311l0 267 730 0 0 -1825 1 -2z"/>
  <path class="fil4" d="M6036 13399l-186 0 0 402c0,23 -2,45 -5,65 -4,20 -10,39 -19,55 -9,16 -21,28 -37,37 -16,9 -35,14 -58,14 -23,0 -43,-5 -58,-14 -16,-9 -28,-21 -37,-37 -9,-16 -16,-34 -19,-55 -4,-20 -6,-42 -5,-65l0 -402 -186 0 0 433c0,48 8,89 22,124 15,35 35,63 62,87 27,22 59,39 96,51 38,11 79,17 125,17 46,0 88,-6 125,-17 37,-11 69,-27 96,-51 27,-22 48,-52 62,-87 15,-35 22,-76 22,-124l0 -433 0 0zm111 698l180 0 0 -220c0,-55 10,-97 28,-124 19,-26 47,-40 84,-40 17,0 31,4 44,13 13,9 22,22 29,41 7,19 11,45 11,78l0 252 180 0 0 -325c0,-27 -4,-54 -11,-78 -8,-25 -19,-47 -35,-66 -16,-19 -36,-35 -62,-46 -25,-12 -55,-18 -91,-18 -27,0 -54,4 -78,12 -24,8 -46,19 -65,35 -19,16 -35,36 -47,61l-2 0 0 -96 -165 0 0 521 -1 0zm688 0l180 0 0 -521 -180 0 0 521zm180 -738l-180 0 0 132 180 0 0 -132zm280 738l205 0 193 -521 -179 0 -109 371 -2 0 -108 -371 -193 0 193 521zm981 -208l0 -33c0,-31 -3,-61 -9,-90 -6,-29 -16,-55 -28,-80 -13,-24 -29,-46 -50,-64 -20,-19 -46,-32 -75,-43 -29,-10 -63,-16 -101,-16 -41,0 -78,6 -112,19 -34,13 -63,30 -89,54 -25,23 -45,52 -58,86 -14,33 -20,72 -20,115 0,43 8,82 23,115 16,34 37,62 64,86 27,23 59,41 96,54 37,13 77,19 120,19 34,0 66,-3 99,-8 32,-5 63,-14 92,-25l0 -127c-27,15 -55,24 -82,31 -27,6 -53,10 -78,9 -29,0 -55,-3 -77,-10 -21,-7 -39,-18 -52,-32 -13,-15 -21,-34 -24,-58l360 0 -1 0zm-362 -102c1,-20 6,-39 14,-55 8,-17 19,-29 33,-39 15,-10 32,-15 54,-15 24,0 43,5 58,15 15,10 25,22 32,39 7,17 10,35 10,55l-201 0zm837 -217c-9,-2 -19,-3 -29,-4 -11,-1 -21,-2 -32,-2 -26,0 -49,5 -68,14 -19,9 -36,21 -50,37 -14,17 -26,35 -36,57l-2 0 0 -96 -165 0 0 521 180 0 0 -220c0,-34 5,-63 16,-88 10,-24 25,-43 45,-55 19,-13 44,-19 71,-19 11,0 20,0 31,1 10,1 20,3 30,5l9 -150zm43 514c18,6 36,11 55,14 19,4 39,7 61,9 21,2 47,3 73,3 23,0 48,-2 71,-5 23,-3 45,-9 66,-17 20,-8 39,-19 55,-31 16,-14 28,-30 38,-50 9,-20 14,-44 14,-71 0,-28 -5,-52 -15,-70 -10,-19 -22,-34 -38,-45 -16,-12 -33,-20 -53,-27 -19,-7 -38,-12 -57,-17 -19,-4 -37,-9 -53,-13 -16,-4 -28,-10 -38,-17 -10,-7 -15,-16 -15,-27 0,-7 3,-14 8,-18 5,-5 12,-9 19,-11 8,-3 17,-5 27,-6 10,-1 19,-2 29,-2 16,0 31,1 48,4 17,3 33,7 49,12 16,5 30,12 43,19l14 -125c-29,-12 -59,-19 -90,-23 -31,-4 -62,-7 -93,-6 -21,0 -42,2 -63,6 -21,4 -41,11 -60,19 -19,9 -36,19 -51,33 -15,14 -26,29 -35,48 -9,19 -13,40 -14,63 0,26 5,49 15,66 9,18 21,32 37,43 16,11 32,19 50,26 19,7 36,12 55,17 19,5 35,9 50,14 16,5 27,11 37,19 9,8 14,18 15,29 0,12 -4,20 -11,27 -7,6 -16,10 -27,13 -11,2 -22,3 -35,3 -21,0 -43,-2 -63,-5 -20,-4 -40,-8 -57,-14 -18,-6 -34,-11 -48,-18l-10 131 -2 -3zm541 13l180 0 0 -521 -180 0 0 521zm180 -738l-180 0 0 132 180 0 0 -132zm693 -12l-181 0 0 296 -2 0c-16,-19 -32,-36 -51,-47 -19,-12 -39,-19 -60,-24 -21,-5 -44,-8 -68,-7 -29,0 -55,5 -79,15 -23,10 -44,23 -62,41 -19,18 -33,37 -46,59 -13,22 -21,46 -27,71 -6,25 -10,51 -10,77 0,39 5,75 16,109 11,34 25,64 46,90 20,26 45,46 75,61 29,15 63,22 102,22 28,0 54,-5 78,-15 24,-10 45,-21 62,-38 18,-16 30,-33 38,-53l2 0 0 93 166 0 0 -751 1 -1zm-399 484c0,-18 2,-34 7,-50 5,-16 12,-29 21,-41 10,-12 20,-21 34,-28 14,-7 29,-11 47,-11 22,0 42,6 57,18 17,12 29,27 38,48 9,20 14,44 14,70 0,25 -5,49 -16,68 -10,19 -23,36 -40,47 -17,12 -35,18 -55,18 -22,0 -42,-6 -58,-18 -17,-12 -28,-28 -37,-49 -9,-20 -14,-46 -14,-73l2 1zm1013 266c-4,-20 -7,-41 -8,-61 -1,-20 -2,-41 -2,-61l0 -194c0,-40 -7,-73 -20,-101 -14,-27 -31,-50 -55,-67 -22,-17 -50,-29 -79,-37 -29,-8 -61,-12 -94,-12 -38,0 -75,3 -109,9 -34,6 -67,16 -99,28l3 122c25,-14 52,-24 80,-30 28,-6 56,-9 86,-9 22,0 42,2 59,8 18,5 32,15 43,27 11,13 17,31 17,55 -12,-2 -25,-4 -40,-5 -15,-1 -29,-2 -45,-2 -17,0 -34,1 -54,2 -19,2 -39,4 -59,9 -20,4 -40,11 -58,19 -19,8 -35,19 -51,32 -15,14 -26,29 -35,49 -9,19 -14,42 -14,68 0,28 6,53 16,73 11,20 24,38 43,51 19,14 39,23 62,30 23,7 48,10 74,10 24,0 47,-3 66,-10 19,-7 38,-17 54,-31 17,-14 31,-32 45,-54l2 0c0,14 1,27 2,41 1,14 2,27 2,41l165 0 4 2zm-363 -165c0,-17 5,-30 15,-40 10,-10 22,-18 39,-22 17,-5 35,-7 55,-7 14,0 26,1 40,1 13,1 25,1 36,2 0,16 -3,30 -8,45 -5,15 -13,27 -22,39 -10,12 -21,21 -35,28 -14,7 -29,11 -46,11 -15,0 -27,-2 -38,-7 -11,-5 -19,-11 -26,-19 -7,-9 -10,-19 -10,-31l0 1zm1028 -585l-181 0 0 296 -2 0c-16,-19 -32,-36 -51,-47 -19,-12 -39,-19 -60,-24 -21,-5 -44,-8 -68,-7 -29,0 -55,5 -79,15 -23,10 -44,23 -62,41 -19,18 -33,37 -46,59 -12,22 -21,46 -27,71 -6,25 -10,51 -10,77 0,39 5,75 16,109 11,34 25,64 46,90 20,26 45,46 75,61 29,15 63,22 102,22 28,0 54,-5 78,-15 24,-10 45,-21 62,-38 18,-16 30,-33 38,-53l2 0 0 93 166 0 0 -751 1 -1zm-399 484c0,-18 2,-34 7,-50 5,-16 12,-29 21,-41 10,-12 20,-21 34,-28 14,-7 29,-11 47,-11 22,0 42,6 57,18 17,12 29,27 38,48 9,20 14,44 14,70 0,25 -5,49 -16,68 -10,19 -23,36 -40,47 -17,12 -35,18 -55,18 -22,0 -42,-6 -58,-18 -17,-12 -28,-28 -37,-49 -9,-20 -14,-46 -14,-73l2 1zm1024 58l0 -33c0,-31 -3,-61 -9,-90 -6,-29 -16,-55 -28,-80 -13,-24 -29,-46 -50,-64 -20,-19 -46,-32 -75,-43 -29,-10 -63,-16 -101,-16 -41,0 -78,6 -112,19 -34,13 -63,30 -89,54 -25,23 -45,52 -58,86 -14,33 -20,72 -20,115 0,43 8,82 23,115 16,34 37,62 64,86 27,23 59,41 96,54 37,13 77,19 120,19 34,0 66,-3 99,-8 32,-5 63,-14 92,-25l0 -127c-27,15 -55,24 -82,31 -27,6 -53,10 -78,9 -29,0 -55,-3 -77,-10 -21,-7 -39,-18 -52,-32 -13,-15 -21,-34 -24,-58l360 0 -1 0zm-362 -102c1,-20 6,-39 14,-55 8,-17 19,-29 33,-39 15,-10 32,-15 54,-15 24,0 43,5 58,15 15,10 25,22 32,39 7,17 10,35 10,55l-201 0zm766 311l186 0 0 -281 269 0 0 -132 -269 0 0 -153 281 0 0 -132 -467 0 0 698 0 1zm1069 -208l0 -33c0,-31 -3,-61 -9,-90 -6,-29 -16,-55 -28,-80 -13,-24 -29,-46 -50,-64 -20,-19 -46,-32 -75,-43 -29,-10 -63,-16 -101,-16 -41,0 -78,6 -112,19 -34,13 -63,30 -89,54 -25,23 -45,52 -58,86 -14,33 -20,72 -20,115 0,43 8,82 23,115 16,34 37,62 64,86 27,23 59,41 96,54 37,13 77,19 120,19 34,0 66,-3 99,-8 32,-5 63,-14 92,-25l0 -127c-27,15 -55,24 -82,31 -27,6 -53,10 -78,9 -29,0 -55,-3 -77,-10 -21,-7 -39,-18 -52,-32 -13,-15 -21,-34 -24,-58l360 0 -1 0zm-362 -102c1,-20 6,-39 14,-55 8,-17 19,-29 33,-39 15,-10 32,-15 54,-15 24,0 43,5 58,15 15,10 25,22 32,39 7,17 10,35 10,55l-201 0zm1016 -440l-181 0 0 296 -2 0c-16,-19 -32,-36 -51,-47 -19,-12 -39,-19 -60,-24 -21,-5 -44,-8 -68,-7 -29,0 -55,5 -79,15 -23,10 -44,23 -62,41 -19,18 -33,37 -46,59 -12,22 -21,46 -27,71 -6,25 -10,51 -10,77 0,39 5,75 16,109 11,34 25,64 46,90 20,26 45,46 75,61 29,15 63,22 102,22 28,0 54,-5 78,-15 24,-10 45,-21 62,-38 18,-16 30,-33 38,-53l2 0 0 93 166 0 0 -751 1 -1zm-399 484c0,-18 2,-34 7,-50 5,-16 12,-29 21,-41 10,-12 20,-21 34,-28 14,-7 29,-11 47,-11 22,0 42,6 57,18 17,12 29,27 38,48 9,20 14,44 14,70 0,25 -5,49 -16,68 -10,19 -23,36 -40,47 -17,12 -35,18 -55,18 -22,0 -42,-6 -58,-18 -17,-12 -28,-28 -37,-49 -9,-20 -14,-46 -14,-73l2 1zm1024 58l0 -33c0,-31 -3,-61 -9,-90 -6,-29 -16,-55 -28,-80 -13,-24 -29,-46 -50,-64 -20,-19 -46,-32 -75,-43 -29,-10 -63,-16 -101,-16 -41,0 -78,6 -112,19 -34,13 -63,30 -89,54 -25,23 -45,52 -58,86 -14,33 -20,72 -20,115 0,43 8,82 23,115 16,34 37,62 64,86 27,23 59,41 96,54 37,13 77,19 120,19 34,0 66,-3 99,-8 32,-5 63,-14 92,-25l0 -127c-27,15 -55,24 -82,31 -27,6 -53,10 -78,9 -29,0 -55,-3 -77,-10 -21,-7 -39,-18 -52,-32 -13,-15 -21,-34 -24,-58l360 0 -1 0zm-362 -102c1,-20 6,-39 14,-55 8,-17 19,-29 33,-39 15,-10 32,-15 54,-15 24,0 43,5 58,15 15,10 25,22 32,39 7,17 10,35 10,55l-201 0zm837 -217c-9,-2 -19,-3 -29,-4 -11,-1 -21,-2 -32,-2 -26,0 -49,5 -68,14 -19,9 -36,21 -50,37 -14,17 -26,35 -36,57l-2 0 0 -96 -165 0 0 521 180 0 0 -220c0,-34 5,-63 16,-88 10,-24 25,-43 45,-55 19,-13 44,-19 71,-19 11,0 20,0 31,1 10,1 20,3 30,5l9 -150zm569 527c-4,-20 -7,-41 -8,-61 -1,-20 -2,-41 -2,-61l0 -194c0,-40 -7,-73 -20,-101 -14,-27 -31,-50 -55,-67 -22,-17 -50,-29 -79,-37 -29,-8 -61,-12 -94,-12 -38,0 -75,3 -109,9 -34,6 -67,16 -99,28l3 122c25,-14 52,-24 80,-30 28,-6 56,-9 86,-9 22,0 42,2 59,8 18,5 32,15 43,27 11,13 17,31 17,55 -12,-2 -25,-4 -40,-5 -15,-1 -29,-2 -45,-2 -17,0 -34,1 -54,2 -19,2 -39,4 -59,9 -20,4 -40,11 -58,19 -19,8 -35,19 -51,32 -15,14 -26,29 -35,49 -9,19 -14,42 -14,68 0,28 6,53 16,73 11,20 24,38 43,51 19,14 39,23 62,30 23,7 48,10 74,10 24,0 47,-3 66,-10 19,-7 38,-17 54,-31 17,-14 31,-32 45,-54l2 0c0,14 1,27 2,41 1,14 2,27 2,41l165 0 4 2zm-363 -165c0,-17 5,-30 15,-40 10,-10 22,-18 39,-22 17,-5 35,-7 55,-7 14,0 26,1 40,1 13,1 25,1 36,2 0,16 -3,30 -8,45 -5,15 -13,27 -22,39 -10,12 -21,21 -35,28 -14,7 -29,11 -46,11 -15,0 -27,-2 -38,-7 -11,-5 -19,-11 -26,-19 -7,-9 -10,-19 -10,-31l0 1zm489 165l180 0 0 -751 -180 0 0 751zm1179 -751l-181 0 0 296 -2 0c-16,-19 -32,-36 -51,-47 -19,-12 -39,-19 -60,-24 -21,-5 -44,-8 -68,-7 -29,0 -55,5 -79,15 -23,10 -44,23 -62,41 -19,18 -33,37 -46,59 -13,22 -21,46 -27,71 -6,25 -10,51 -10,77 0,39 5,75 16,109 11,34 25,64 46,90 20,26 45,46 75,61 29,15 63,22 102,22 28,0 54,-5 78,-15 24,-10 45,-21 62,-38 18,-16 30,-33 38,-53l2 0 0 93 166 0 0 -751 1 -1zm-399 484c0,-18 2,-34 7,-50 5,-16 12,-29 21,-41 10,-12 20,-21 34,-28 14,-7 29,-11 47,-11 22,0 42,6 57,18 17,12 29,27 38,48 9,20 14,44 14,70 0,25 -5,49 -16,68 -10,19 -23,36 -40,47 -17,12 -35,18 -55,18 -22,0 -42,-6 -58,-18 -17,-12 -28,-28 -37,-49 -9,-20 -14,-46 -14,-73l2 1zm786 278c43,0 83,-6 120,-19 37,-13 69,-30 96,-54 27,-23 49,-52 64,-86 16,-33 23,-72 23,-115 0,-44 -8,-82 -23,-116 -16,-34 -37,-62 -64,-86 -27,-23 -59,-41 -96,-54 -37,-13 -77,-19 -120,-19 -43,0 -83,6 -120,19 -37,13 -69,30 -96,54 -27,23 -49,52 -64,86 -16,34 -23,72 -23,116 0,43 8,82 23,115 16,34 37,62 64,86 27,23 59,41 96,54 37,13 77,19 120,19zm0 -126c-20,0 -39,-4 -54,-12 -15,-8 -27,-19 -36,-32 -10,-14 -17,-29 -20,-47 -5,-18 -7,-36 -7,-55 0,-19 2,-38 7,-55 4,-18 12,-33 20,-47 10,-14 21,-24 36,-32 15,-8 33,-12 54,-12 20,0 39,4 54,12 15,8 27,19 36,32 10,14 17,29 20,47 5,18 7,36 7,55 0,19 -2,38 -7,55 -4,18 -12,33 -20,47 -10,14 -21,24 -36,32 -15,8 -33,12 -54,12zm695 114l186 0 0 -244 72 0c58,0 108,-9 149,-27 41,-18 73,-44 94,-77 22,-33 33,-74 33,-121 0,-78 -25,-136 -77,-173 -52,-37 -130,-56 -237,-55l-222 0 0 698 1 0zm186 -567l48 0c21,0 41,3 58,9 18,6 31,16 41,29 10,14 16,32 16,56 0,24 -5,44 -16,57 -10,14 -24,24 -41,30 -18,6 -37,9 -58,9l-48 0 0 -190 0 -1zm933 567c-4,-20 -7,-41 -8,-61 -1,-20 -2,-41 -2,-61l0 -194c0,-40 -7,-73 -20,-101 -14,-27 -31,-50 -55,-67 -22,-17 -50,-29 -79,-37 -29,-8 -61,-12 -94,-12 -38,0 -75,3 -109,9 -34,6 -67,16 -99,28l3 122c25,-14 52,-24 80,-30 28,-6 56,-9 86,-9 22,0 42,2 59,8 18,5 32,15 43,27 11,13 17,31 17,55 -12,-2 -25,-4 -40,-5 -15,-1 -29,-2 -45,-2 -17,0 -34,1 -54,2 -19,2 -39,4 -59,9 -20,4 -40,11 -58,19 -19,8 -35,19 -51,32 -15,14 -26,29 -35,49 -9,19 -14,42 -14,68 0,28 6,53 16,73 11,20 24,38 43,51 19,14 39,23 62,30 23,7 48,10 74,10 24,0 47,-3 66,-10 19,-7 38,-17 54,-31 17,-14 31,-32 45,-54l2 0c0,14 1,27 2,41 1,14 2,27 2,41l165 0 4 2zm-363 -165c0,-17 5,-30 15,-40 10,-10 22,-18 39,-22 17,-5 35,-7 55,-7 14,0 26,1 40,1 13,1 25,1 36,2 0,16 -3,30 -8,45 -5,15 -13,27 -22,39 -10,12 -21,21 -35,28 -14,7 -29,11 -46,11 -15,0 -27,-2 -38,-7 -11,-5 -19,-11 -26,-19 -7,-9 -10,-19 -10,-31l0 1z"/>
  <path class="fil4" d="M19521 14097l180 0 0 -220c0,-55 9,-97 27,-124 18,-26 43,-40 75,-40 17,0 31,5 41,14 11,9 19,21 23,36 5,16 8,33 8,53l0 280 180 0 0 -220c0,-55 10,-97 27,-124 18,-26 43,-40 75,-40 17,0 31,5 41,14 11,9 19,21 23,36 5,16 8,33 8,53l0 280 180 0 0 -307c0,-35 -2,-67 -8,-94 -5,-28 -15,-52 -28,-71 -14,-19 -32,-34 -56,-45 -24,-11 -55,-16 -92,-16 -25,0 -49,3 -71,11 -22,7 -44,18 -63,33 -19,15 -36,34 -51,57 -10,-22 -22,-41 -38,-56 -17,-15 -35,-26 -55,-33 -21,-8 -44,-11 -69,-11 -27,0 -54,4 -78,12 -24,8 -46,19 -65,35 -19,16 -35,36 -47,61l-2 0 0 -96 -165 0 0 521 0 1zm996 210l180 0 0 -283 2 0c12,20 26,37 44,50 18,13 37,21 58,27 20,6 42,9 63,9 39,0 73,-8 102,-22 29,-15 55,-35 75,-61 20,-26 35,-55 46,-90 10,-34 16,-70 16,-109 0,-25 -3,-51 -10,-76 -7,-25 -16,-49 -27,-71 -13,-22 -27,-42 -46,-59 -18,-18 -39,-31 -62,-41 -23,-10 -50,-15 -79,-16 -27,0 -54,4 -79,12 -25,8 -48,19 -67,35 -19,16 -36,36 -48,60l-2 0 0 -94 -166 0 0 731 0 -1zm399 -476c0,28 -5,53 -14,73 -9,21 -21,37 -37,49 -17,12 -36,18 -58,18 -20,0 -39,-6 -55,-18 -17,-12 -30,-27 -40,-47 -10,-20 -15,-43 -16,-68 0,-26 5,-50 14,-70 9,-20 21,-36 38,-49 17,-12 36,-18 57,-18 18,0 33,4 47,11 14,7 25,17 34,28 9,12 17,25 21,41 5,16 7,32 7,50l2 0zm779 266c-4,-20 -7,-41 -8,-61 -1,-20 -2,-41 -2,-61l0 -194c0,-40 -7,-73 -20,-101 -14,-27 -31,-50 -55,-67 -22,-17 -50,-29 -79,-37 -29,-8 -61,-12 -94,-12 -38,0 -75,3 -109,9 -34,6 -67,16 -99,28l3 122c25,-14 52,-24 80,-30 28,-6 56,-9 86,-9 22,0 42,2 59,8 18,5 32,15 43,27 11,13 17,31 17,55 -12,-2 -25,-4 -40,-5 -15,-1 -29,-2 -45,-2 -17,0 -34,1 -54,2 -19,2 -39,4 -59,9 -20,4 -40,11 -58,19 -19,8 -35,19 -51,32 -15,14 -26,29 -35,49 -9,19 -14,42 -14,68 0,28 6,53 16,73 11,20 24,38 43,51 19,14 39,23 62,30 23,7 48,10 74,10 24,0 47,-3 66,-10 19,-7 38,-17 54,-31 17,-14 31,-32 45,-54l2 0c0,14 1,27 2,41 1,14 2,27 2,41l165 0 4 2zm-363 -165c0,-17 5,-30 15,-40 10,-10 22,-18 39,-22 17,-5 35,-7 55,-7 14,0 26,1 40,1 13,1 25,1 36,2 0,16 -3,30 -8,45 -5,15 -13,27 -22,39 -10,12 -21,21 -35,28 -14,7 -29,11 -46,11 -15,0 -27,-2 -38,-7 -11,-5 -19,-11 -26,-19 -7,-9 -10,-19 -10,-31l0 1z"/>
  <rect class="fil5" x="3616" y="8589" width="1809" height="1809"/>
  <rect class="fil5" x="21749" y="8589" width="1809" height="1809"/>
  <rect class="fil5" x="12682" y="2586" width="1809" height="1809"/>
  <rect class="fil5" x="12682" y="14307" width="1809" height="1809"/>
  <polyline class="fil5" points="21,19025 21,19004 21,17648 21,16293 21,14937 21,13581 21,12225 21,10869 21,9513 21,8157 21,6801 21,5445 21,4089 21,2733 21,1377 21,21 21,0 "/>
  <polyline class="fil5" points="1377,19025 1377,19004 1377,17648 1377,16293 1377,14937 1377,13581 1377,12225 1377,10869 1377,9513 1377,8157 1377,6801 1377,5445 1377,4089 1377,2733 1377,1377 1377,21 1377,0 "/>
  <polyline class="fil5" points="2734,19025 2734,19004 2734,17648 2734,16293 2734,14937 2734,13581 2734,12225 2734,10869 2734,9513 2734,8157 2734,6801 2734,5445 2734,4089 2734,2733 2734,1377 2734,21 2734,0 "/>
  <polyline class="fil5" points="4090,19025 4090,19004 4090,17648 4090,16293 4090,14937 4090,13581 4090,12225 4090,10869 4090,9513 4090,8157 4090,6801 4090,5445 4090,4089 4090,2733 4090,1377 4090,21 4090,0 "/>
  <polyline class="fil5" points="5447,19025 5447,19004 5447,17648 5447,16293 5447,14937 5447,13581 5447,12225 5447,10869 5447,9513 5447,8157 5447,6801 5447,5445 5447,4089 5447,2733 5447,1377 5447,21 5447,0 "/>
  <polyline class="fil5" points="6804,19025 6804,19004 6804,17648 6804,16293 6804,14937 6804,13581 6804,12225 6804,10869 6804,9513 6804,8157 6804,6801 6804,5445 6804,4089 6804,2733 6804,1377 6804,21 6804,0 "/>
  <polyline class="fil5" points="8161,19025 8161,19004 8161,17648 8161,16293 8161,14937 8161,13581 8161,12225 8161,10869 8161,9513 8161,8157 8161,6801 8161,5445 8161,4089 8161,2733 8161,1377 8161,21 8161,0 "/>
  <polyline class="fil5" points="9517,19025 9517,19004 9517,17648 9517,16293 9517,14937 9517,13581 9517,12225 9517,10869 9517,9513 9517,8157 9517,6801 9517,5445 9517,4089 9517,2733 9517,1377 9517,21 9517,0 "/>
  <polyline class="fil5" points="10874,19025 10874,19004 10874,17648 10874,16293 10874,14937 10874,13581 10874,12225 10874,10869 10874,9513 10874,8157 10874,6801 10874,5445 10874,4089 10874,2733 10874,1377 10874,21 10874,0 "/>
  <polyline class="fil5" points="12231,19025 12231,19004 12231,17648 12231,16293 12231,14937 12231,13581 12231,12225 12231,10869 12231,9513 12231,8157 12231,6801 12231,5445 12231,4089 12231,2733 12231,1377 12231,21 12231,0 "/>
  <polyline class="fil5" points="13587,19025 13587,19004 13587,17648 13587,16293 13587,14937 13587,13581 13587,12225 13587,10869 13587,9513 13587,8157 13587,6801 13587,5445 13587,4089 13587,2733 13587,1377 13587,21 13587,0 "/>
  <polyline class="fil5" points="14944,19025 14944,19004 14944,17648 14944,16293 14944,14937 14944,13581 14944,12225 14944,10869 14944,9513 14944,8157 14944,6801 14944,5445 14944,4089 14944,2733 14944,1377 14944,21 14944,0 "/>
  <polyline class="fil5" points="16300,19025 16300,19004 16300,17648 16300,16293 16300,14937 16300,13581 16300,12225 16300,10869 16300,9513 16300,8157 16300,6801 16300,5445 16300,4089 16300,2733 16300,1377 16300,21 16300,0 "/>
  <polyline class="fil5" points="17657,19025 17657,19004 17657,17648 17657,16293 17657,14937 17657,13581 17657,12225 17657,10869 17657,9513 17657,8157 17657,6801 17657,5445 17657,4089 17657,2733 17657,1377 17657,21 17657,0 "/>
  <polyline class="fil5" points="19013,19025 19013,19004 19013,17648 19013,16293 19013,14937 19013,13581 19013,12225 19013,10869 19013,9513 19013,8157 19013,6801 19013,5445 19013,4089 19013,2733 19013,1377 19013,21 19013,0 "/>
  <polyline class="fil5" points="20370,19025 20370,19004 20370,17648 20370,16293 20370,14937 20370,13581 20370,12225 20370,10869 20370,9513 20370,8157 20370,6801 20370,5445 20370,4089 20370,2733 20370,1377 20370,21 20370,0 "/>
  <polyline class="fil5" points="21726,19025 21726,19004 21726,17648 21726,16293 21726,14937 21726,13581 21726,12225 21726,10869 21726,9513 21726,8157 21726,6801 21726,5445 21726,4089 21726,2733 21726,1377 21726,21 21726,0 "/>
  <polyline class="fil5" points="23083,19025 23083,19004 23083,17648 23083,16293 23083,14937 23083,13581 23083,12225 23083,10869 23083,9513 23083,8157 23083,6801 23083,5445 23083,4089 23083,2733 23083,1377 23083,21 23083,0 "/>
  <polyline class="fil5" points="24440,19025 24440,19004 24440,17648 24440,16293 24440,14937 24440,13581 24440,12225 24440,10869 24440,9513 24440,8157 24440,6801 24440,5445 24440,4089 24440,2733 24440,1377 24440,21 24440,0 "/>
  <polyline class="fil5" points="25796,19025 25796,19004 25796,17648 25796,16293 25796,14937 25796,13581 25796,12225 25796,10869 25796,9513 25796,8157 25796,6801 25796,5445 25796,4089 25796,2733 25796,1377 25796,21 25796,0 "/>
  <polyline class="fil5" points="27153,19025 27153,19004 27153,17648 27153,16293 27153,14937 27153,13581 27153,12225 27153,10869 27153,9513 27153,8157 27153,6801 27153,5445 27153,4089 27153,2733 27153,1377 27153,21 27153,0 "/>
  <polyline class="fil5" points="0,19004 21,19004 1377,19004 2734,19004 4090,19004 5447,19004 6804,19004 8161,19004 9517,19004 10874,19004 12231,19004 13587,19004 14944,19004 16300,19004 17657,19004 19013,19004 20370,19004 21726,19004 23083,19004 24440,19004 25796,19004 27153,19004 27173,19004 "/>
  <polyline class="fil5" points="0,17648 21,17648 1377,17648 2734,17648 4090,17648 5447,17648 6804,17648 8161,17648 9517,17648 10874,17648 12231,17648 13587,17648 14944,17648 16300,17648 17657,17648 19013,17648 20370,17648 21726,17648 23083,17648 24440,17648 25796,17648 27153,17648 27173,17648 "/>
  <polyline class="fil5" points="0,16293 21,16293 1377,16293 2734,16293 4090,16293 5447,16293 6804,16293 8161,16293 9517,16293 10874,16293 12231,16293 13587,16293 14944,16293 16300,16293 17657,16293 19013,16293 20370,16293 21726,16293 23083,16293 24440,16293 25796,16293 27153,16293 27173,16293 "/>
  <polyline class="fil5" points="0,14937 21,14937 1377,14937 2734,14937 4090,14937 5447,14937 6804,14937 8161,14937 9517,14937 10874,14937 12231,14937 13587,14937 14944,14937 16300,14937 17657,14937 19013,14937 20370,14937 21726,14937 23083,14937 24440,14937 25796,14937 27153,14937 27173,14937 "/>
  <polyline class="fil5" points="0,13581 21,13581 1377,13581 2734,13581 4090,13581 5447,13581 6804,13581 8161,13581 9517,13581 10874,13581 12231,13581 13587,13581 14944,13581 16300,13581 17657,13581 19013,13581 20370,13581 21726,13581 23083,13581 24440,13581 25796,13581 27153,13581 27173,13581 "/>
  <polyline class="fil5" points="0,12225 21,12225 1377,12225 2734,12225 4090,12225 5447,12225 6804,12225 8161,12225 9517,12225 10874,12225 12231,12225 13587,12225 14944,12225 16300,12225 17657,12225 19013,12225 20370,12225 21726,12225 23083,12225 24440,12225 25796,12225 27153,12225 27173,12225 "/>
  <polyline class="fil5" points="0,10869 21,10869 1377,10869 2734,10869 4090,10869 5447,10869 6804,10869 8161,10869 9517,10869 10874,10869 12231,10869 13587,10869 14944,10869 16300,10869 17657,10869 19013,10869 20370,10869 21726,10869 23083,10869 24440,10869 25796,10869 27153,10869 27173,10869 "/>
  <polyline class="fil5" points="0,9513 21,9513 1377,9513 2734,9513 4090,9513 5447,9513 6804,9513 8161,9513 9517,9513 10874,9513 12231,9513 13587,9513 14944,9513 16300,9513 17657,9513 19013,9513 20370,9513 21726,9513 23083,9513 24440,9513 25796,9513 27153,9513 27173,9513 "/>
  <polyline class="fil5" points="0,8157 21,8157 1377,8157 2734,8157 4090,8157 5447,8157 6804,8157 8161,8157 9517,8157 10874,8157 12231,8157 13587,8157 14944,8157 16300,8157 17657,8157 19013,8157 20370,8157 21726,8157 23083,8157 24440,8157 25796,8157 27153,8157 27173,8157 "/>
  <polyline class="fil5" points="0,6801 21,6801 1377,6801 2734,6801 4090,6801 5447,6801 6804,6801 8161,6801 9517,6801 10874,6801 12231,6801 13587,6801 14944,6801 16300,6801 17657,6801 19013,6801 20370,6801 21726,6801 23083,6801 24440,6801 25796,6801 27153,6801 27173,6801 "/>
  <polyline class="fil5" points="0,5445 21,5445 1377,5445 2734,5445 4090,5445 5447,5445 6804,5445 8161,5445 9517,5445 10874,5445 12231,5445 13587,5445 14944,5445 16300,5445 17657,5445 19013,5445 20370,5445 21726,5445 23083,5445 24440,5445 25796,5445 27153,5445 27173,5445 "/>
  <polyline class="fil5" points="0,4089 21,4089 1377,4089 2734,4089 4090,4089 5447,4089 6804,4089 8161,4089 9517,4089 10874,4089 12231,4089 13587,4089 14944,4089 16300,4089 17657,4089 19013,4089 20370,4089 21726,4089 23083,4089 24440,4089 25796,4089 27153,4089 27173,4089 "/>
  <polyline class="fil5" points="0,2733 21,2733 1377,2733 2734,2733 4090,2733 5447,2733 6804,2733 8161,2733 9517,2733 10874,2733 12231,2733 13587,2733 14944,2733 16300,2733 17657,2733 19013,2733 20370,2733 21726,2733 23083,2733 24440,2733 25796,2733 27153,2733 27173,2733 "/>
  <polyline class="fil5" points="0,1377 21,1377 1377,1377 2734,1377 4090,1377 5447,1377 6804,1377 8161,1377 9517,1377 10874,1377 12231,1377 13587,1377 14944,1377 16300,1377 17657,1377 19013,1377 20370,1377 21726,1377 23083,1377 24440,1377 25796,1377 27153,1377 27173,1377 "/>
  <polyline class="fil5" points="0,21 21,21 1377,21 2734,21 4090,21 5447,21 6804,21 8161,21 9517,21 10874,21 12231,21 13587,21 14944,21 16300,21 17657,21 19013,21 20370,21 21726,21 23083,21 24440,21 25796,21 27153,21 27173,21 "/>
  <rect class="fil5" x="1377" y="9513" width="1357" height="1356"/>
  <line class="fil5" x1="1377" y1="10869" x2="2734" y2= "9513" />
  <line class="fil5" x1="1377" y1="9513" x2="2734" y2= "10869" />
  <rect class="fil5" x="2734" y="9513" width="1357" height="1356"/>
  <line class="fil5" x1="4090" y1="10869" x2="2734" y2= "9513" />
  <line class="fil5" x1="4090" y1="9513" x2="2734" y2= "10869" />
  <rect class="fil5" x="4090" y="9513" width="1357" height="1356"/>
  <line class="fil5" x1="4090" y1="10869" x2="5447" y2= "9513" />
  <line class="fil5" x1="4090" y1="9513" x2="5447" y2= "10869" />
  <line class="fil5" x1="1377" y1="10869" x2="2734" y2= "9513" />
  <rect class="fil5" x="21" y="9513" width="1357" height="1356"/>
  <line class="fil5" x1="1377" y1="10869" x2="21" y2= "9513" />
  <line class="fil5" x1="1377" y1="9513" x2="21" y2= "10869" />
  <rect class="fil5" x="23083" y="9513" width="1357" height="1356"/>
  <line class="fil5" x1="23083" y1="10869" x2="24440" y2= "9513" />
  <line class="fil5" x1="23083" y1="9513" x2="24440" y2= "10869" />
  <rect class="fil5" x="24440" y="9513" width="1357" height="1356"/>
  <line class="fil5" x1="25796" y1="10869" x2="24440" y2= "9513" />
  <line class="fil5" x1="25796" y1="9513" x2="24440" y2= "10869" />
  <rect class="fil5" x="25796" y="9513" width="1357" height="1356"/>
  <line class="fil5" x1="25796" y1="10869" x2="27153" y2= "9513" />
  <line class="fil5" x1="25796" y1="9513" x2="27153" y2= "10869" />
  <line class="fil5" x1="23083" y1="10869" x2="24440" y2= "9513" />
  <rect class="fil5" x="21727" y="9513" width="1357" height="1356"/>
  <line class="fil5" x1="23083" y1="10869" x2="21727" y2= "9513" />
  <line class="fil5" x1="23083" y1="9513" x2="21727" y2= "10869" />
 </g>
</svg>
